<svg xmlns="http://www.w3.org/2000/svg" viewBox="0 0 512 640" fill="none" x="0px" y="0px"><path fill-rule="evenodd" clip-rule="evenodd" d="M402.092 77.5876C396.338 84.2968 397.115 94.3976 403.829 100.148L427.004 120H330.727C322.291 120 314.474 124.423 310.134 131.652L254.147 224.901L198.161 131.652C193.821 124.423 186.003 120 177.567 120H46.0105C37.1682 120 30 127.163 30 136C30 144.836 37.1682 152 46.0105 152H173.035L235.476 256L173.035 360H46.0105C37.1682 360 30 367.163 30 376C30 384.836 37.1682 392 46.0105 392H177.567C186.003 392 193.821 387.576 198.161 380.347L254.147 287.098L310.134 380.347C314.474 387.576 322.291 392 330.727 392H427.005L403.829 411.852C397.115 417.602 396.338 427.703 402.092 434.412C407.847 441.122 417.954 441.899 424.668 436.148L473.613 394.222C484.795 384.644 484.795 367.356 473.613 357.778L424.668 315.852C417.954 310.101 407.847 310.878 402.092 317.587C396.338 324.296 397.115 334.397 403.829 340.148L427.004 360H335.26L272.819 256L335.26 152H427.005L403.829 171.852C397.115 177.603 396.338 187.704 402.092 194.413C407.847 201.122 417.954 201.899 424.668 196.148L473.613 154.222C484.795 144.644 484.795 127.356 473.613 117.778L424.668 75.8522C417.954 70.1014 407.847 70.8784 402.092 77.5876Z" fill="black"/><text x="0" y="527" fill="#000000" font-size="5px" font-weight="bold" font-family="'Helvetica Neue', Helvetica, Arial-Unicode, Arial, Sans-serif">Created by Melvin ilham oktaviansyah</text><text x="0" y="532" fill="#000000" font-size="5px" font-weight="bold" font-family="'Helvetica Neue', Helvetica, Arial-Unicode, Arial, Sans-serif">from the Noun Project</text></svg>