<svg xmlns="http://www.w3.org/2000/svg" viewBox="0 0 512 640" fill="none" x="0px" y="0px"><path fill-rule="evenodd" clip-rule="evenodd" d="M84.9407 448.942C78.6923 455.19 68.5616 455.19 62.3132 448.942C56.0649 442.693 56.0649 432.563 62.3132 426.314L233 255.628L62.3132 84.9417C56.0649 78.6933 56.0649 68.5626 62.3132 62.3142C68.5616 56.0658 78.6923 56.0658 84.9407 62.3142L255.627 233.001L426.313 62.3142C432.562 56.0658 442.692 56.0658 448.941 62.3142C455.189 68.5626 455.189 78.6933 448.941 84.9417L278.254 255.628L448.941 426.314C455.189 432.563 455.189 442.693 448.941 448.942C442.692 455.19 432.562 455.19 426.313 448.942L255.627 278.255L84.9407 448.942Z" fill="black"/><text x="0" y="527" fill="#000000" font-size="5px" font-weight="bold" font-family="'Helvetica Neue', Helvetica, Arial-Unicode, Arial, Sans-serif">Created by Melvin ilham oktaviansyah</text><text x="0" y="532" fill="#000000" font-size="5px" font-weight="bold" font-family="'Helvetica Neue', Helvetica, Arial-Unicode, Arial, Sans-serif">from the Noun Project</text></svg>