<svg xmlns="http://www.w3.org/2000/svg" viewBox="0 0 512 640" fill="none" x="0px" y="0px"><path fill-rule="evenodd" clip-rule="evenodd" d="M277.53 41.2382C265.278 30.254 246.722 30.2539 234.47 41.2381L42.7872 213.092C20.7564 232.844 34.7282 269.358 64.3169 269.358H78.6142V454.807C78.6142 468.167 89.444 478.996 102.803 478.996H199.559C212.918 478.996 223.748 468.167 223.748 454.807V362.083H288.252V454.807C288.252 468.167 299.082 478.996 312.441 478.996H409.197C422.556 478.996 433.386 468.167 433.386 454.807V269.358H447.683C477.272 269.358 491.244 232.844 469.213 213.092L277.53 41.2382ZM401.134 269.358H110.866V446.744H191.496V354.02C191.496 340.661 202.326 329.831 215.685 329.831H296.315C309.674 329.831 320.504 340.661 320.504 354.02V446.744H401.134V269.358ZM64.3169 237.106L256 65.252L447.683 237.106L64.3169 237.106Z" fill="black"/><text x="0" y="527" fill="#000000" font-size="5px" font-weight="bold" font-family="'Helvetica Neue', Helvetica, Arial-Unicode, Arial, Sans-serif">Created by Melvin ilham oktaviansyah</text><text x="0" y="532" fill="#000000" font-size="5px" font-weight="bold" font-family="'Helvetica Neue', Helvetica, Arial-Unicode, Arial, Sans-serif">from the Noun Project</text></svg>