<svg xmlns="http://www.w3.org/2000/svg" viewBox="0 0 512 640" fill="none" x="0px" y="0px"><path fill-rule="evenodd" clip-rule="evenodd" d="M173.297 171.895C179.865 177.806 189.981 177.274 195.893 170.706L240 121.698L240 336C240 344.837 247.163 352 256 352C264.837 352 272 344.837 272 336L272 121.697L316.107 170.706C322.019 177.274 332.135 177.806 338.704 171.895C345.272 165.984 345.804 155.867 339.893 149.299L273.839 75.9058C264.305 65.3127 247.695 65.3127 238.161 75.9058L172.107 149.299C166.196 155.867 166.729 165.984 173.297 171.895ZM64 368C64 359.163 56.8366 352 48 352C39.1634 352 32 359.163 32 368V424C32 437.255 42.7452 448 56 448H456C469.255 448 480 437.255 480 424V368C480 359.163 472.837 352 464 352C455.163 352 448 359.163 448 368V416H64V368Z" fill="black"/><text x="0" y="527" fill="#000000" font-size="5px" font-weight="bold" font-family="'Helvetica Neue', Helvetica, Arial-Unicode, Arial, Sans-serif">Created by Melvin ilham oktaviansyah</text><text x="0" y="532" fill="#000000" font-size="5px" font-weight="bold" font-family="'Helvetica Neue', Helvetica, Arial-Unicode, Arial, Sans-serif">from the Noun Project</text></svg>