<svg xmlns="http://www.w3.org/2000/svg" viewBox="0 0 512 640" fill="none" x="0px" y="0px"><path fill-rule="evenodd" clip-rule="evenodd" d="M342.719 37.3796C336.853 43.9886 337.456 54.1013 344.065 59.9669L402.31 111.66L233.561 111.66C195.802 111.66 168.776 123.014 138.988 142.641C108.316 162.851 84.3761 191.6 70.2299 225.278C56.0828 258.958 52.3776 296.032 59.5928 331.802C66.8077 367.57 84.6107 400.395 110.715 426.137C136.816 451.876 170.045 469.38 206.187 476.47C242.328 483.559 279.791 479.922 313.848 466.011C347.908 452.099 377.055 428.525 397.578 398.235C418.104 367.943 429.073 332.305 429.073 295.83C429.073 286.993 421.91 279.83 413.073 279.83C404.237 279.83 397.073 286.993 397.073 295.83C397.073 325.876 388.039 355.266 371.087 380.285C354.133 405.307 330.011 424.842 301.748 436.387C273.482 447.932 242.367 450.957 212.346 445.068C182.327 439.18 154.782 424.65 133.184 403.352C111.588 382.055 96.9065 354.95 90.961 325.475C85.0158 296.001 88.0651 265.448 99.7329 237.67C111.402 209.89 131.178 186.109 156.595 169.362C182.897 152.032 203.862 143.66 233.561 143.66L402.31 143.66L344.065 195.353C337.456 201.218 336.853 211.331 342.719 217.94C348.584 224.549 358.697 225.152 365.306 219.286L447.649 146.205C453.179 141.297 456 134.471 456 127.66C456 120.848 453.179 114.022 447.649 109.114L440 117.733L447.649 109.114L365.306 36.0334C358.697 30.1678 348.584 30.7705 342.719 37.3796Z" fill="black"/><text x="0" y="527" fill="#000000" font-size="5px" font-weight="bold" font-family="'Helvetica Neue', Helvetica, Arial-Unicode, Arial, Sans-serif">Created by Melvin ilham oktaviansyah</text><text x="0" y="532" fill="#000000" font-size="5px" font-weight="bold" font-family="'Helvetica Neue', Helvetica, Arial-Unicode, Arial, Sans-serif">from the Noun Project</text></svg>