<svg xmlns="http://www.w3.org/2000/svg" viewBox="0 0 512 640" fill="none" x="0px" y="0px"><path fill-rule="evenodd" clip-rule="evenodd" d="M64 192C64 121.308 121.308 64 192 64C262.692 64 320 121.308 320 192C320 262.692 262.692 320 192 320C121.308 320 64 262.692 64 192ZM192 32C103.634 32 32 103.634 32 192C32 280.366 103.634 352 192 352C230.42 352 265.678 338.458 293.26 315.887L452.686 475.314C458.935 481.562 469.065 481.562 475.314 475.314C481.562 469.065 481.562 458.935 475.314 452.686L315.887 293.26C338.458 265.678 352 230.42 352 192C352 103.634 280.366 32 192 32Z" fill="black"/><text x="0" y="527" fill="#000000" font-size="5px" font-weight="bold" font-family="'Helvetica Neue', Helvetica, Arial-Unicode, Arial, Sans-serif">Created by Melvin ilham oktaviansyah</text><text x="0" y="532" fill="#000000" font-size="5px" font-weight="bold" font-family="'Helvetica Neue', Helvetica, Arial-Unicode, Arial, Sans-serif">from the Noun Project</text></svg>