<svg xmlns="http://www.w3.org/2000/svg" viewBox="0 0 512 640" fill="none" x="0px" y="0px"><path fill-rule="evenodd" clip-rule="evenodd" d="M176 144C176 99.8172 211.817 64 256 64C300.183 64 336 99.8172 336 144C336 188.183 300.183 224 256 224C211.817 224 176 188.183 176 144ZM256 32C194.144 32 144 82.1441 144 144C144 181.554 162.483 214.791 190.848 235.111C184.654 237.275 178.543 239.75 172.533 242.53C146.141 254.74 122.283 272.58 102.268 294.935C82.2552 317.288 66.4613 343.73 55.7121 372.716C47.0646 396.033 41.8055 420.661 40.0787 445.683C38.8129 464.026 52.9682 480 71.4918 480H440.507C459.031 480 473.186 464.025 471.92 445.683C470.194 420.661 464.935 396.033 456.287 372.715C445.538 343.73 429.744 317.288 409.732 294.935C389.716 272.58 365.858 254.74 339.466 242.53C333.456 239.75 327.345 237.275 321.151 235.111C349.517 214.791 368 181.554 368 144C368 82.1441 317.856 32 256 32ZM185.97 271.572C208.235 261.271 232.025 256 256 256C279.974 256 303.764 261.271 326.029 271.572C348.301 281.876 368.66 297.036 385.891 316.281C403.124 335.529 416.876 358.473 426.284 383.842C433.851 404.247 438.477 425.867 439.996 447.886C439.999 447.93 440 447.968 439.999 448H71.9998C71.9991 447.968 71.9998 447.93 72.0028 447.886C73.5224 425.867 78.1481 404.247 85.7153 383.842C95.1235 358.473 108.875 335.529 126.108 316.281C143.339 297.036 163.698 281.876 185.97 271.572Z" fill="black"/><text x="0" y="527" fill="#000000" font-size="5px" font-weight="bold" font-family="'Helvetica Neue', Helvetica, Arial-Unicode, Arial, Sans-serif">Created by Melvin ilham oktaviansyah</text><text x="0" y="532" fill="#000000" font-size="5px" font-weight="bold" font-family="'Helvetica Neue', Helvetica, Arial-Unicode, Arial, Sans-serif">from the Noun Project</text></svg>